<svg width="22" height="22" viewBox="0 0 22 22" fill="none" xmlns="http://www.w3.org/2000/svg">
<g clip-path="url(#clip0_2247_1047)">
<path opacity="0.1" d="M11 20.167C16.0628 20.167 20.167 16.0628 20.167 11C20.167 5.93721 16.0628 1.83301 11 1.83301C5.93721 1.83301 1.83301 5.93721 1.83301 11C1.83301 16.0628 5.93721 20.167 11 20.167Z" fill="white"/>
<path opacity="0.8" fill-rule="evenodd" clip-rule="evenodd" d="M13.436 7.77201C13.1347 7.7128 12.8289 7.67935 12.522 7.67201C11.865 7.67201 11.822 7.95801 11.822 8.41501V9.22901H13.465L13.322 10.915H11.822V16.042H9.76598V10.915H8.70898V9.22901H9.76598V8.18601C9.76598 6.75801 10.437 5.95801 12.122 5.95801C12.708 5.95801 13.136 6.04401 13.693 6.15801L13.436 7.77201Z" fill="white"/>
</g>
<defs>
<clipPath id="clip0_2247_1047">
<rect width="22" height="22" fill="white"/>
</clipPath>
</defs>
</svg>
