<svg width="22" height="22" viewBox="0 0 22 22" fill="none" xmlns="http://www.w3.org/2000/svg">
<path opacity="0.1" d="M10.999 20.167C16.0618 20.167 20.166 16.0628 20.166 11C20.166 5.93721 16.0618 1.83301 10.999 1.83301C5.93624 1.83301 1.83203 5.93721 1.83203 11C1.83203 16.0628 5.93624 20.167 10.999 20.167Z" fill="white"/>
<path opacity="0.8" fill-rule="evenodd" clip-rule="evenodd" d="M17.05 7.65815C16.646 7.83815 16.21 7.95815 15.754 8.01315C16.22 7.73415 16.578 7.29215 16.746 6.76515C16.311 7.02415 15.826 7.21115 15.313 7.31315C14.9733 6.95022 14.5232 6.70962 14.0327 6.62872C13.5421 6.54782 13.0386 6.63114 12.6003 6.86574C12.162 7.10035 11.8134 7.47311 11.6087 7.92615C11.4039 8.37918 11.3545 8.88714 11.468 9.37115C10.5706 9.32647 9.69261 9.09343 8.89113 8.68718C8.08965 8.28093 7.38264 7.71056 6.81605 7.01315C6.52677 7.5099 6.43802 8.09833 6.56793 8.6583C6.69784 9.21826 7.03661 9.70752 7.51505 10.0262C7.15648 10.0148 6.80579 9.91812 6.49205 9.74415V9.77215C6.49245 10.2931 6.67283 10.798 7.00266 11.2012C7.33249 11.6045 7.79151 11.8814 8.30205 11.9852C7.96993 12.0765 7.62118 12.0898 7.28305 12.0242C7.4271 12.4726 7.70777 12.8647 8.08576 13.1457C8.46375 13.4267 8.92014 13.5824 9.39105 13.5912C8.92291 13.9588 8.38686 14.2306 7.81356 14.3909C7.24027 14.5511 6.641 14.5968 6.05005 14.5252C7.08218 15.1882 8.28331 15.5402 9.51005 15.5392C13.66 15.5392 15.93 12.1012 15.93 9.11915C15.93 9.02115 15.928 8.92315 15.923 8.82715C16.3652 8.50759 16.7469 8.11173 17.05 7.65815Z" fill="white"/>
</svg>
