<svg width="22" height="22" viewBox="0 0 22 22" fill="none" xmlns="http://www.w3.org/2000/svg">
<g clip-path="url(#clip0_2247_1061)">
<path opacity="0.1" d="M11 20.167C16.0628 20.167 20.167 16.0628 20.167 11C20.167 5.93721 16.0628 1.83301 11 1.83301C5.93721 1.83301 1.83301 5.93721 1.83301 11C1.83301 16.0628 5.93721 20.167 11 20.167Z" fill="white"/>
<g opacity="0.8">
<path d="M11 6.491C12.469 6.491 12.643 6.497 13.223 6.523C13.759 6.548 14.05 6.637 14.243 6.713C14.501 6.813 14.683 6.931 14.876 7.123C15.069 7.316 15.188 7.5 15.288 7.756C15.363 7.95 15.453 8.241 15.477 8.778C15.503 9.358 15.509 9.531 15.509 11C15.509 12.469 15.503 12.643 15.477 13.222C15.453 13.759 15.363 14.05 15.287 14.244C15.187 14.5 15.069 14.684 14.877 14.876C14.6993 15.0587 14.483 15.1994 14.244 15.288C14.05 15.363 13.759 15.453 13.223 15.477C12.643 15.503 12.469 15.509 11 15.509C9.531 15.509 9.357 15.503 8.778 15.477C8.241 15.453 7.95 15.363 7.756 15.287C7.51747 15.199 7.30157 15.0589 7.124 14.877C6.94131 14.6993 6.80056 14.483 6.712 14.244C6.637 14.05 6.548 13.759 6.523 13.222C6.497 12.642 6.491 12.469 6.491 11C6.491 9.531 6.497 9.357 6.523 8.778C6.548 8.241 6.637 7.95 6.713 7.756C6.813 7.5 6.931 7.316 7.123 7.124C7.316 6.931 7.5 6.812 7.756 6.712C7.95 6.637 8.241 6.548 8.778 6.523C9.358 6.497 9.531 6.491 11 6.491ZM11 5.5C9.506 5.5 9.319 5.506 8.732 5.533C8.147 5.56 7.747 5.653 7.397 5.789C7.036 5.929 6.729 6.117 6.423 6.423C6.14327 6.69763 5.9269 7.03004 5.789 7.397C5.653 7.747 5.559 8.147 5.533 8.732C5.506 9.32 5.5 9.506 5.5 11C5.5 12.494 5.506 12.681 5.533 13.268C5.56 13.853 5.653 14.253 5.789 14.603C5.929 14.964 6.117 15.271 6.423 15.577C6.729 15.883 7.036 16.071 7.397 16.211C7.747 16.347 8.147 16.441 8.732 16.467C9.319 16.494 9.506 16.5 11 16.5C12.494 16.5 12.681 16.494 13.268 16.467C13.853 16.44 14.253 16.347 14.603 16.211C14.964 16.071 15.271 15.883 15.577 15.577C15.883 15.271 16.071 14.964 16.211 14.603C16.347 14.253 16.441 13.853 16.467 13.268C16.494 12.681 16.5 12.494 16.5 11C16.5 9.506 16.494 9.319 16.467 8.732C16.44 8.147 16.347 7.747 16.211 7.397C16.0731 7.03004 15.8567 6.69763 15.577 6.423C15.3024 6.14327 14.97 5.9269 14.603 5.789C14.253 5.653 13.853 5.559 13.268 5.533C12.68 5.506 12.494 5.5 11 5.5Z" fill="white"/>
<path d="M11.002 8.17779C10.6311 8.17779 10.2639 8.25083 9.92128 8.39275C9.57866 8.53467 9.26734 8.74268 9.00511 9.00492C8.74288 9.26715 8.53486 9.57846 8.39294 9.92109C8.25102 10.2637 8.17798 10.6309 8.17798 11.0018C8.17798 11.3726 8.25102 11.7399 8.39294 12.0825C8.53486 12.4251 8.74288 12.7364 9.00511 12.9987C9.26734 13.2609 9.57866 13.4689 9.92128 13.6108C10.2639 13.7527 10.6311 13.8258 11.002 13.8258C11.751 13.8258 12.4692 13.5283 12.9988 12.9987C13.5285 12.4691 13.826 11.7508 13.826 11.0018C13.826 10.2528 13.5285 9.53452 12.9988 9.00492C12.4692 8.47531 11.751 8.17779 11.002 8.17779ZM11.002 12.8358C10.5158 12.8358 10.0496 12.6427 9.70585 12.2989C9.3621 11.9552 9.16898 11.4889 9.16898 11.0028C9.16898 10.5166 9.3621 10.0504 9.70585 9.70666C10.0496 9.3629 10.5158 9.16979 11.002 9.16979C11.4881 9.16979 11.9544 9.3629 12.2981 9.70666C12.6419 10.0504 12.835 10.5166 12.835 11.0028C12.835 11.4889 12.6419 11.9552 12.2981 12.2989C11.9544 12.6427 11.4881 12.8358 11.002 12.8358ZM14.597 8.06478C14.597 8.23983 14.5274 8.4077 14.4037 8.53148C14.2799 8.65525 14.112 8.72479 13.937 8.72479C13.7619 8.72479 13.5941 8.65525 13.4703 8.53148C13.3465 8.4077 13.277 8.23983 13.277 8.06478C13.277 7.88974 13.3465 7.72187 13.4703 7.59809C13.5941 7.47432 13.7619 7.40479 13.937 7.40479C14.112 7.40479 14.2799 7.47432 14.4037 7.59809C14.5274 7.72187 14.597 7.88974 14.597 8.06478Z" fill="white"/>
</g>
</g>
<defs>
<clipPath id="clip0_2247_1061">
<rect width="22" height="22" fill="white"/>
</clipPath>
</defs>
</svg>
