<svg width="22" height="22" viewBox="0 0 22 22" fill="none" xmlns="http://www.w3.org/2000/svg">
<g clip-path="url(#clip0_2247_1070)">
<path opacity="0.1" d="M10.999 20.167C16.0618 20.167 20.166 16.0628 20.166 11C20.166 5.93721 16.0618 1.83301 10.999 1.83301C5.93624 1.83301 1.83203 5.93721 1.83203 11C1.83203 16.0628 5.93624 20.167 10.999 20.167Z" fill="white"/>
<path opacity="0.8" fill-rule="evenodd" clip-rule="evenodd" d="M16.179 7.507C16.362 7.69 16.494 7.917 16.561 8.167C16.951 9.733 16.861 12.207 16.569 13.833C16.5007 14.0823 16.3687 14.3095 16.186 14.4924C16.0033 14.6753 15.7762 14.8075 15.527 14.876C14.612 15.125 10.933 15.125 10.933 15.125C10.933 15.125 7.25299 15.125 6.33999 14.875C6.09016 14.8081 5.86247 14.6763 5.67999 14.493C5.49626 14.3107 5.36411 14.083 5.29699 13.833C4.90599 12.273 5.01299 9.799 5.28899 8.174C5.35689 7.92445 5.48887 7.69699 5.67183 7.51421C5.85479 7.33142 6.08237 7.19966 6.33199 7.132C7.24599 6.882 10.925 6.875 10.925 6.875C10.925 6.875 14.605 6.875 15.519 7.125C15.769 7.192 15.996 7.324 16.179 7.507ZM12.807 11L9.75399 12.768V9.232L12.807 11Z" fill="white"/>
</g>
<defs>
<clipPath id="clip0_2247_1070">
<rect width="22" height="22" fill="white"/>
</clipPath>
</defs>
</svg>
