<svg width="14" height="14" viewBox="0 0 14 14" fill="none" xmlns="http://www.w3.org/2000/svg">
<g clip-path="url(#clip0_2247_1084)">
<path d="M6.07002 2.08191C5.79702 2.35491 5.82402 2.76591 6.07002 3.03891L9.38002 6.15591H1.53002C1.14702 6.15591 0.874023 6.45691 0.874023 6.81291V7.68791C0.874023 8.06991 1.14702 8.34391 1.53002 8.34391H9.38002L6.07002 11.4879C5.82402 11.7619 5.82402 12.1719 6.07002 12.4449L6.67202 13.0469C6.94502 13.2929 7.35502 13.2929 7.60202 13.0469L12.934 7.71491C13.18 7.46891 13.18 7.05891 12.934 6.78491L7.60202 1.47991C7.35502 1.23391 6.94502 1.23391 6.67202 1.47991L6.07002 2.08191Z" fill="white"/>
</g>
<defs>
<clipPath id="clip0_2247_1084">
<rect width="14" height="13" fill="white" transform="translate(0 0.5)"/>
</clipPath>
</defs>
</svg>
