<svg width="119" height="103" viewBox="0 0 119 103" fill="none" xmlns="http://www.w3.org/2000/svg">
<g clip-path="url(#clip0_2247_823)">
<g clip-path="url(#clip1_2247_823)">
<path opacity="0.1" fill-rule="evenodd" clip-rule="evenodd" d="M115.984 102.547C115.189 102.547 114.426 102.231 113.863 101.668C113.3 101.106 112.984 100.343 112.984 99.5469C112.984 98.7512 113.3 97.9882 113.863 97.4256C114.426 96.8629 115.189 96.5469 115.984 96.5469C116.78 96.5469 117.543 96.8629 118.106 97.4256C118.668 97.9882 118.984 98.7512 118.984 99.5469C118.984 100.343 118.668 101.106 118.106 101.668C117.543 102.231 116.78 102.547 115.984 102.547ZM96.9844 99.5469C96.9844 100.343 97.3004 101.106 97.8631 101.668C98.4257 102.231 99.1887 102.547 99.9844 102.547C100.78 102.547 101.543 102.231 102.106 101.668C102.668 101.106 102.984 100.343 102.984 99.5469C102.984 98.7512 102.668 97.9882 102.106 97.4256C101.543 96.8629 100.78 96.5469 99.9844 96.5469C99.1887 96.5469 98.4257 96.8629 97.8631 97.4256C97.3004 97.9882 96.9844 98.7512 96.9844 99.5469ZM83.9844 102.547C83.1887 102.547 82.4257 102.231 81.8631 101.668C81.3004 101.106 80.9844 100.343 80.9844 99.5469C80.9844 98.7512 81.3004 97.9882 81.8631 97.4256C82.4257 96.8629 83.1887 96.5469 83.9844 96.5469C84.78 96.5469 85.5431 96.8629 86.1057 97.4256C86.6683 97.9882 86.9844 98.7512 86.9844 99.5469C86.9844 100.343 86.6683 101.106 86.1057 101.668C85.5431 102.231 84.78 102.547 83.9844 102.547ZM64.9844 99.5469C64.9844 100.343 65.3004 101.106 65.8631 101.668C66.4257 102.231 67.1887 102.547 67.9844 102.547C68.78 102.547 69.5431 102.231 70.1057 101.668C70.6683 101.106 70.9844 100.343 70.9844 99.5469C70.9844 98.7512 70.6683 97.9882 70.1057 97.4256C69.5431 96.8629 68.78 96.5469 67.9844 96.5469C67.1887 96.5469 66.4257 96.8629 65.8631 97.4256C65.3004 97.9882 64.9844 98.7512 64.9844 99.5469ZM51.9844 102.547C51.1887 102.547 50.4257 102.231 49.8631 101.668C49.3004 101.106 48.9844 100.343 48.9844 99.5469C48.9844 98.7512 49.3004 97.9882 49.8631 97.4256C50.4257 96.8629 51.1887 96.5469 51.9844 96.5469C52.78 96.5469 53.5431 96.8629 54.1057 97.4256C54.6683 97.9882 54.9844 98.7512 54.9844 99.5469C54.9844 100.343 54.6683 101.106 54.1057 101.668C53.5431 102.231 52.78 102.547 51.9844 102.547ZM32.9844 99.5469C32.9844 100.343 33.3004 101.106 33.8631 101.668C34.4257 102.231 35.1887 102.547 35.9844 102.547C36.78 102.547 37.5431 102.231 38.1057 101.668C38.6683 101.106 38.9844 100.343 38.9844 99.5469C38.9844 98.7512 38.6683 97.9882 38.1057 97.4256C37.5431 96.8629 36.78 96.5469 35.9844 96.5469C35.1887 96.5469 34.4257 96.8629 33.8631 97.4256C33.3004 97.9882 32.9844 98.7512 32.9844 99.5469ZM19.9844 102.547C19.1887 102.547 18.4257 102.231 17.8631 101.668C17.3004 101.106 16.9844 100.343 16.9844 99.5469C16.9844 98.7512 17.3004 97.9882 17.8631 97.4256C18.4257 96.8629 19.1887 96.5469 19.9844 96.5469C20.78 96.5469 21.5431 96.8629 22.1057 97.4256C22.6683 97.9882 22.9844 98.7512 22.9844 99.5469C22.9844 100.343 22.6683 101.106 22.1057 101.668C21.5431 102.231 20.78 102.547 19.9844 102.547ZM0.984375 67.5469C0.984375 68.3425 1.30045 69.1056 1.86305 69.6682C2.42566 70.2308 3.18873 70.5469 3.98438 70.5469C4.78002 70.5469 5.54309 70.2308 6.1057 69.6682C6.6683 69.1056 6.98438 68.3425 6.98438 67.5469C6.98438 66.7512 6.6683 65.9882 6.1057 65.4256C5.54309 64.8629 4.78002 64.5469 3.98438 64.5469C3.18873 64.5469 2.42566 64.8629 1.86305 65.4256C1.30045 65.9882 0.984375 66.7512 0.984375 67.5469ZM3.98438 86.5469C3.18873 86.5469 2.42566 86.2308 1.86305 85.6682C1.30045 85.1056 0.984375 84.3425 0.984375 83.5469C0.984375 82.7512 1.30045 81.9882 1.86305 81.4256C2.42566 80.8629 3.18873 80.5469 3.98438 80.5469C4.78002 80.5469 5.54309 80.8629 6.1057 81.4256C6.6683 81.9882 6.98438 82.7512 6.98438 83.5469C6.98438 84.3425 6.6683 85.1056 6.1057 85.6682C5.54309 86.2308 4.78002 86.5469 3.98438 86.5469ZM3.98438 102.547C3.18873 102.547 2.42566 102.231 1.86305 101.668C1.30045 101.106 0.984375 100.343 0.984375 99.5469C0.984375 98.7512 1.30045 97.9882 1.86305 97.4256C2.42566 96.8629 3.18873 96.5469 3.98438 96.5469C4.78002 96.5469 5.54309 96.8629 6.1057 97.4256C6.6683 97.9882 6.98438 98.7512 6.98438 99.5469C6.98438 100.343 6.6683 101.106 6.1057 101.668C5.54309 102.231 4.78002 102.547 3.98438 102.547ZM3.98438 54.5469C3.18873 54.5469 2.42566 54.2308 1.86305 53.6682C1.30045 53.1056 0.984375 52.3425 0.984375 51.5469C0.984375 50.7512 1.30045 49.9882 1.86305 49.4256C2.42566 48.8629 3.18873 48.5469 3.98438 48.5469C4.78002 48.5469 5.54309 48.8629 6.1057 49.4256C6.6683 49.9882 6.98438 50.7512 6.98438 51.5469C6.98438 52.3425 6.6683 53.1056 6.1057 53.6682C5.54309 54.2308 4.78002 54.5469 3.98438 54.5469ZM0.984375 35.5469C0.984375 36.3425 1.30045 37.1056 1.86305 37.6682C2.42566 38.2308 3.18873 38.5469 3.98438 38.5469C4.78002 38.5469 5.54309 38.2308 6.1057 37.6682C6.6683 37.1056 6.98438 36.3425 6.98438 35.5469C6.98438 34.7512 6.6683 33.9882 6.1057 33.4256C5.54309 32.8629 4.78002 32.5469 3.98438 32.5469C3.18873 32.5469 2.42566 32.8629 1.86305 33.4256C1.30045 33.9882 0.984375 34.7512 0.984375 35.5469ZM3.98438 22.5469C3.18873 22.5469 2.42566 22.2308 1.86305 21.6682C1.30045 21.1056 0.984375 20.3425 0.984375 19.5469C0.984375 18.7512 1.30045 17.9882 1.86305 17.4256C2.42566 16.8629 3.18873 16.5469 3.98438 16.5469C4.78002 16.5469 5.54309 16.8629 6.1057 17.4256C6.6683 17.9882 6.98438 18.7512 6.98438 19.5469C6.98438 20.3425 6.6683 21.1056 6.1057 21.6682C5.54309 22.2308 4.78002 22.5469 3.98438 22.5469ZM0.984375 3.54688C0.984375 4.34252 1.30045 5.10559 1.86305 5.6682C2.42566 6.2308 3.18873 6.54688 3.98438 6.54688C4.78002 6.54688 5.54309 6.2308 6.1057 5.6682C6.6683 5.10559 6.98438 4.34252 6.98438 3.54688C6.98438 2.75123 6.6683 1.98816 6.1057 1.42555C5.54309 0.862945 4.78002 0.546875 3.98438 0.546875C3.18873 0.546875 2.42566 0.862945 1.86305 1.42555C1.30045 1.98816 0.984375 2.75123 0.984375 3.54688ZM16.9844 83.5469C16.9844 84.3425 17.3004 85.1056 17.8631 85.6682C18.4257 86.2308 19.1887 86.5469 19.9844 86.5469C20.78 86.5469 21.5431 86.2308 22.1057 85.6682C22.6683 85.1056 22.9844 84.3425 22.9844 83.5469C22.9844 82.7512 22.6683 81.9882 22.1057 81.4256C21.5431 80.8629 20.78 80.5469 19.9844 80.5469C19.1887 80.5469 18.4257 80.8629 17.8631 81.4256C17.3004 81.9882 16.9844 82.7512 16.9844 83.5469ZM19.9844 70.5469C19.1887 70.5469 18.4257 70.2308 17.8631 69.6682C17.3004 69.1056 16.9844 68.3425 16.9844 67.5469C16.9844 66.7512 17.3004 65.9882 17.8631 65.4256C18.4257 64.8629 19.1887 64.5469 19.9844 64.5469C20.78 64.5469 21.5431 64.8629 22.1057 65.4256C22.6683 65.9882 22.9844 66.7512 22.9844 67.5469C22.9844 68.3425 22.6683 69.1056 22.1057 69.6682C21.5431 70.2308 20.78 70.5469 19.9844 70.5469ZM16.9844 51.5469C16.9844 52.3425 17.3004 53.1056 17.8631 53.6682C18.4257 54.2308 19.1887 54.5469 19.9844 54.5469C20.78 54.5469 21.5431 54.2308 22.1057 53.6682C22.6683 53.1056 22.9844 52.3425 22.9844 51.5469C22.9844 50.7512 22.6683 49.9882 22.1057 49.4256C21.5431 48.8629 20.78 48.5469 19.9844 48.5469C19.1887 48.5469 18.4257 48.8629 17.8631 49.4256C17.3004 49.9882 16.9844 50.7512 16.9844 51.5469ZM19.9844 38.5469C19.1887 38.5469 18.4257 38.2308 17.8631 37.6682C17.3004 37.1056 16.9844 36.3425 16.9844 35.5469C16.9844 34.7512 17.3004 33.9882 17.8631 33.4256C18.4257 32.8629 19.1887 32.5469 19.9844 32.5469C20.78 32.5469 21.5431 32.8629 22.1057 33.4256C22.6683 33.9882 22.9844 34.7512 22.9844 35.5469C22.9844 36.3425 22.6683 37.1056 22.1057 37.6682C21.5431 38.2308 20.78 38.5469 19.9844 38.5469ZM16.9844 19.5469C16.9844 20.3425 17.3004 21.1056 17.8631 21.6682C18.4257 22.2308 19.1887 22.5469 19.9844 22.5469C20.78 22.5469 21.5431 22.2308 22.1057 21.6682C22.6683 21.1056 22.9844 20.3425 22.9844 19.5469C22.9844 18.7512 22.6683 17.9882 22.1057 17.4256C21.5431 16.8629 20.78 16.5469 19.9844 16.5469C19.1887 16.5469 18.4257 16.8629 17.8631 17.4256C17.3004 17.9882 16.9844 18.7512 16.9844 19.5469ZM19.9844 6.54688C19.1887 6.54688 18.4257 6.2308 17.8631 5.6682C17.3004 5.10559 16.9844 4.34252 16.9844 3.54688C16.9844 2.75123 17.3004 1.98816 17.8631 1.42555C18.4257 0.862945 19.1887 0.546875 19.9844 0.546875C20.78 0.546875 21.5431 0.862945 22.1057 1.42555C22.6683 1.98816 22.9844 2.75123 22.9844 3.54688C22.9844 4.34252 22.6683 5.10559 22.1057 5.6682C21.5431 6.2308 20.78 6.54688 19.9844 6.54688ZM35.9844 86.5469C35.1887 86.5469 34.4257 86.2308 33.8631 85.6682C33.3004 85.1056 32.9844 84.3425 32.9844 83.5469C32.9844 82.7512 33.3004 81.9882 33.8631 81.4256C34.4257 80.8629 35.1887 80.5469 35.9844 80.5469C36.78 80.5469 37.5431 80.8629 38.1057 81.4256C38.6683 81.9882 38.9844 82.7512 38.9844 83.5469C38.9844 84.3425 38.6683 85.1056 38.1057 85.6682C37.5431 86.2308 36.78 86.5469 35.9844 86.5469ZM32.9844 67.5469C32.9844 68.3425 33.3004 69.1056 33.8631 69.6682C34.4257 70.2308 35.1887 70.5469 35.9844 70.5469C36.78 70.5469 37.5431 70.2308 38.1057 69.6682C38.6683 69.1056 38.9844 68.3425 38.9844 67.5469C38.9844 66.7512 38.6683 65.9882 38.1057 65.4256C37.5431 64.8629 36.78 64.5469 35.9844 64.5469C35.1887 64.5469 34.4257 64.8629 33.8631 65.4256C33.3004 65.9882 32.9844 66.7512 32.9844 67.5469ZM35.9844 54.5469C35.1887 54.5469 34.4257 54.2308 33.8631 53.6682C33.3004 53.1056 32.9844 52.3425 32.9844 51.5469C32.9844 50.7512 33.3004 49.9882 33.8631 49.4256C34.4257 48.8629 35.1887 48.5469 35.9844 48.5469C36.78 48.5469 37.5431 48.8629 38.1057 49.4256C38.6683 49.9882 38.9844 50.7512 38.9844 51.5469C38.9844 52.3425 38.6683 53.1056 38.1057 53.6682C37.5431 54.2308 36.78 54.5469 35.9844 54.5469ZM32.9844 35.5469C32.9844 36.3425 33.3004 37.1056 33.8631 37.6682C34.4257 38.2308 35.1887 38.5469 35.9844 38.5469C36.78 38.5469 37.5431 38.2308 38.1057 37.6682C38.6683 37.1056 38.9844 36.3425 38.9844 35.5469C38.9844 34.7512 38.6683 33.9882 38.1057 33.4256C37.5431 32.8629 36.78 32.5469 35.9844 32.5469C35.1887 32.5469 34.4257 32.8629 33.8631 33.4256C33.3004 33.9882 32.9844 34.7512 32.9844 35.5469ZM35.9844 22.5469C35.1887 22.5469 34.4257 22.2308 33.8631 21.6682C33.3004 21.1056 32.9844 20.3425 32.9844 19.5469C32.9844 18.7512 33.3004 17.9882 33.8631 17.4256C34.4257 16.8629 35.1887 16.5469 35.9844 16.5469C36.78 16.5469 37.5431 16.8629 38.1057 17.4256C38.6683 17.9882 38.9844 18.7512 38.9844 19.5469C38.9844 20.3425 38.6683 21.1056 38.1057 21.6682C37.5431 22.2308 36.78 22.5469 35.9844 22.5469ZM32.9844 3.54688C32.9844 4.34252 33.3004 5.10559 33.8631 5.6682C34.4257 6.2308 35.1887 6.54688 35.9844 6.54688C36.78 6.54688 37.5431 6.2308 38.1057 5.6682C38.6683 5.10559 38.9844 4.34252 38.9844 3.54688C38.9844 2.75123 38.6683 1.98816 38.1057 1.42555C37.5431 0.862945 36.78 0.546875 35.9844 0.546875C35.1887 0.546875 34.4257 0.862945 33.8631 1.42555C33.3004 1.98816 32.9844 2.75123 32.9844 3.54688ZM48.9844 83.5469C48.9844 84.3425 49.3004 85.1056 49.8631 85.6682C50.4257 86.2308 51.1887 86.5469 51.9844 86.5469C52.78 86.5469 53.5431 86.2308 54.1057 85.6682C54.6683 85.1056 54.9844 84.3425 54.9844 83.5469C54.9844 82.7512 54.6683 81.9882 54.1057 81.4256C53.5431 80.8629 52.78 80.5469 51.9844 80.5469C51.1887 80.5469 50.4257 80.8629 49.8631 81.4256C49.3004 81.9882 48.9844 82.7512 48.9844 83.5469ZM51.9844 70.5469C51.1887 70.5469 50.4257 70.2308 49.8631 69.6682C49.3004 69.1056 48.9844 68.3425 48.9844 67.5469C48.9844 66.7512 49.3004 65.9882 49.8631 65.4256C50.4257 64.8629 51.1887 64.5469 51.9844 64.5469C52.78 64.5469 53.5431 64.8629 54.1057 65.4256C54.6683 65.9882 54.9844 66.7512 54.9844 67.5469C54.9844 68.3425 54.6683 69.1056 54.1057 69.6682C53.5431 70.2308 52.78 70.5469 51.9844 70.5469ZM48.9844 51.5469C48.9844 52.3425 49.3004 53.1056 49.8631 53.6682C50.4257 54.2308 51.1887 54.5469 51.9844 54.5469C52.78 54.5469 53.5431 54.2308 54.1057 53.6682C54.6683 53.1056 54.9844 52.3425 54.9844 51.5469C54.9844 50.7512 54.6683 49.9882 54.1057 49.4256C53.5431 48.8629 52.78 48.5469 51.9844 48.5469C51.1887 48.5469 50.4257 48.8629 49.8631 49.4256C49.3004 49.9882 48.9844 50.7512 48.9844 51.5469ZM51.9844 38.5469C51.1887 38.5469 50.4257 38.2308 49.8631 37.6682C49.3004 37.1056 48.9844 36.3425 48.9844 35.5469C48.9844 34.7512 49.3004 33.9882 49.8631 33.4256C50.4257 32.8629 51.1887 32.5469 51.9844 32.5469C52.78 32.5469 53.5431 32.8629 54.1057 33.4256C54.6683 33.9882 54.9844 34.7512 54.9844 35.5469C54.9844 36.3425 54.6683 37.1056 54.1057 37.6682C53.5431 38.2308 52.78 38.5469 51.9844 38.5469ZM48.9844 19.5469C48.9844 20.3425 49.3004 21.1056 49.8631 21.6682C50.4257 22.2308 51.1887 22.5469 51.9844 22.5469C52.78 22.5469 53.5431 22.2308 54.1057 21.6682C54.6683 21.1056 54.9844 20.3425 54.9844 19.5469C54.9844 18.7512 54.6683 17.9882 54.1057 17.4256C53.5431 16.8629 52.78 16.5469 51.9844 16.5469C51.1887 16.5469 50.4257 16.8629 49.8631 17.4256C49.3004 17.9882 48.9844 18.7512 48.9844 19.5469ZM51.9844 6.54688C51.1887 6.54688 50.4257 6.2308 49.8631 5.6682C49.3004 5.10559 48.9844 4.34252 48.9844 3.54688C48.9844 2.75123 49.3004 1.98816 49.8631 1.42555C50.4257 0.862945 51.1887 0.546875 51.9844 0.546875C52.78 0.546875 53.5431 0.862945 54.1057 1.42555C54.6683 1.98816 54.9844 2.75123 54.9844 3.54688C54.9844 4.34252 54.6683 5.10559 54.1057 5.6682C53.5431 6.2308 52.78 6.54688 51.9844 6.54688ZM67.9844 86.5469C67.1887 86.5469 66.4257 86.2308 65.8631 85.6682C65.3004 85.1056 64.9844 84.3425 64.9844 83.5469C64.9844 82.7512 65.3004 81.9882 65.8631 81.4256C66.4257 80.8629 67.1887 80.5469 67.9844 80.5469C68.78 80.5469 69.5431 80.8629 70.1057 81.4256C70.6683 81.9882 70.9844 82.7512 70.9844 83.5469C70.9844 84.3425 70.6683 85.1056 70.1057 85.6682C69.5431 86.2308 68.78 86.5469 67.9844 86.5469ZM64.9844 67.5469C64.9844 68.3425 65.3004 69.1056 65.8631 69.6682C66.4257 70.2308 67.1887 70.5469 67.9844 70.5469C68.78 70.5469 69.5431 70.2308 70.1057 69.6682C70.6683 69.1056 70.9844 68.3425 70.9844 67.5469C70.9844 66.7512 70.6683 65.9882 70.1057 65.4256C69.5431 64.8629 68.78 64.5469 67.9844 64.5469C67.1887 64.5469 66.4257 64.8629 65.8631 65.4256C65.3004 65.9882 64.9844 66.7512 64.9844 67.5469ZM67.9844 54.5469C67.1887 54.5469 66.4257 54.2308 65.8631 53.6682C65.3004 53.1056 64.9844 52.3425 64.9844 51.5469C64.9844 50.7512 65.3004 49.9882 65.8631 49.4256C66.4257 48.8629 67.1887 48.5469 67.9844 48.5469C68.78 48.5469 69.5431 48.8629 70.1057 49.4256C70.6683 49.9882 70.9844 50.7512 70.9844 51.5469C70.9844 52.3425 70.6683 53.1056 70.1057 53.6682C69.5431 54.2308 68.78 54.5469 67.9844 54.5469ZM64.9844 35.5469C64.9844 36.3425 65.3004 37.1056 65.8631 37.6682C66.4257 38.2308 67.1887 38.5469 67.9844 38.5469C68.78 38.5469 69.5431 38.2308 70.1057 37.6682C70.6683 37.1056 70.9844 36.3425 70.9844 35.5469C70.9844 34.7512 70.6683 33.9882 70.1057 33.4256C69.5431 32.8629 68.78 32.5469 67.9844 32.5469C67.1887 32.5469 66.4257 32.8629 65.8631 33.4256C65.3004 33.9882 64.9844 34.7512 64.9844 35.5469ZM67.9844 22.5469C67.1887 22.5469 66.4257 22.2308 65.8631 21.6682C65.3004 21.1056 64.9844 20.3425 64.9844 19.5469C64.9844 18.7512 65.3004 17.9882 65.8631 17.4256C66.4257 16.8629 67.1887 16.5469 67.9844 16.5469C68.78 16.5469 69.5431 16.8629 70.1057 17.4256C70.6683 17.9882 70.9844 18.7512 70.9844 19.5469C70.9844 20.3425 70.6683 21.1056 70.1057 21.6682C69.5431 22.2308 68.78 22.5469 67.9844 22.5469ZM64.9844 3.54688C64.9844 4.34252 65.3004 5.10559 65.8631 5.6682C66.4257 6.2308 67.1887 6.54688 67.9844 6.54688C68.78 6.54688 69.5431 6.2308 70.1057 5.6682C70.6683 5.10559 70.9844 4.34252 70.9844 3.54688C70.9844 2.75123 70.6683 1.98816 70.1057 1.42555C69.5431 0.862945 68.78 0.546875 67.9844 0.546875C67.1887 0.546875 66.4257 0.862945 65.8631 1.42555C65.3004 1.98816 64.9844 2.75123 64.9844 3.54688ZM80.9844 83.5469C80.9844 84.3425 81.3004 85.1056 81.8631 85.6682C82.4257 86.2308 83.1887 86.5469 83.9844 86.5469C84.78 86.5469 85.5431 86.2308 86.1057 85.6682C86.6683 85.1056 86.9844 84.3425 86.9844 83.5469C86.9844 82.7512 86.6683 81.9882 86.1057 81.4256C85.5431 80.8629 84.78 80.5469 83.9844 80.5469C83.1887 80.5469 82.4257 80.8629 81.8631 81.4256C81.3004 81.9882 80.9844 82.7512 80.9844 83.5469ZM83.9844 70.5469C83.1887 70.5469 82.4257 70.2308 81.8631 69.6682C81.3004 69.1056 80.9844 68.3425 80.9844 67.5469C80.9844 66.7512 81.3004 65.9882 81.8631 65.4256C82.4257 64.8629 83.1887 64.5469 83.9844 64.5469C84.78 64.5469 85.5431 64.8629 86.1057 65.4256C86.6683 65.9882 86.9844 66.7512 86.9844 67.5469C86.9844 68.3425 86.6683 69.1056 86.1057 69.6682C85.5431 70.2308 84.78 70.5469 83.9844 70.5469ZM80.9844 51.5469C80.9844 52.3425 81.3004 53.1056 81.8631 53.6682C82.4257 54.2308 83.1887 54.5469 83.9844 54.5469C84.78 54.5469 85.5431 54.2308 86.1057 53.6682C86.6683 53.1056 86.9844 52.3425 86.9844 51.5469C86.9844 50.7512 86.6683 49.9882 86.1057 49.4256C85.5431 48.8629 84.78 48.5469 83.9844 48.5469C83.1887 48.5469 82.4257 48.8629 81.8631 49.4256C81.3004 49.9882 80.9844 50.7512 80.9844 51.5469ZM83.9844 38.5469C83.1887 38.5469 82.4257 38.2308 81.8631 37.6682C81.3004 37.1056 80.9844 36.3425 80.9844 35.5469C80.9844 34.7512 81.3004 33.9882 81.8631 33.4256C82.4257 32.8629 83.1887 32.5469 83.9844 32.5469C84.78 32.5469 85.5431 32.8629 86.1057 33.4256C86.6683 33.9882 86.9844 34.7512 86.9844 35.5469C86.9844 36.3425 86.6683 37.1056 86.1057 37.6682C85.5431 38.2308 84.78 38.5469 83.9844 38.5469ZM80.9844 19.5469C80.9844 20.3425 81.3004 21.1056 81.8631 21.6682C82.4257 22.2308 83.1887 22.5469 83.9844 22.5469C84.78 22.5469 85.5431 22.2308 86.1057 21.6682C86.6683 21.1056 86.9844 20.3425 86.9844 19.5469C86.9844 18.7512 86.6683 17.9882 86.1057 17.4256C85.5431 16.8629 84.78 16.5469 83.9844 16.5469C83.1887 16.5469 82.4257 16.8629 81.8631 17.4256C81.3004 17.9882 80.9844 18.7512 80.9844 19.5469ZM83.9844 6.54688C83.1887 6.54688 82.4257 6.2308 81.8631 5.6682C81.3004 5.10559 80.9844 4.34252 80.9844 3.54688C80.9844 2.75123 81.3004 1.98816 81.8631 1.42555C82.4257 0.862945 83.1887 0.546875 83.9844 0.546875C84.78 0.546875 85.5431 0.862945 86.1057 1.42555C86.6683 1.98816 86.9844 2.75123 86.9844 3.54688C86.9844 4.34252 86.6683 5.10559 86.1057 5.6682C85.5431 6.2308 84.78 6.54688 83.9844 6.54688ZM99.9844 86.5469C99.1887 86.5469 98.4257 86.2308 97.8631 85.6682C97.3004 85.1056 96.9844 84.3425 96.9844 83.5469C96.9844 82.7512 97.3004 81.9882 97.8631 81.4256C98.4257 80.8629 99.1887 80.5469 99.9844 80.5469C100.78 80.5469 101.543 80.8629 102.106 81.4256C102.668 81.9882 102.984 82.7512 102.984 83.5469C102.984 84.3425 102.668 85.1056 102.106 85.6682C101.543 86.2308 100.78 86.5469 99.9844 86.5469ZM96.9844 67.5469C96.9844 68.3425 97.3004 69.1056 97.8631 69.6682C98.4257 70.2308 99.1887 70.5469 99.9844 70.5469C100.78 70.5469 101.543 70.2308 102.106 69.6682C102.668 69.1056 102.984 68.3425 102.984 67.5469C102.984 66.7512 102.668 65.9882 102.106 65.4256C101.543 64.8629 100.78 64.5469 99.9844 64.5469C99.1887 64.5469 98.4257 64.8629 97.8631 65.4256C97.3004 65.9882 96.9844 66.7512 96.9844 67.5469ZM99.9844 54.5469C99.1887 54.5469 98.4257 54.2308 97.8631 53.6682C97.3004 53.1056 96.9844 52.3425 96.9844 51.5469C96.9844 50.7512 97.3004 49.9882 97.8631 49.4256C98.4257 48.8629 99.1887 48.5469 99.9844 48.5469C100.78 48.5469 101.543 48.8629 102.106 49.4256C102.668 49.9882 102.984 50.7512 102.984 51.5469C102.984 52.3425 102.668 53.1056 102.106 53.6682C101.543 54.2308 100.78 54.5469 99.9844 54.5469ZM96.9844 35.5469C96.9844 36.3425 97.3004 37.1056 97.8631 37.6682C98.4257 38.2308 99.1887 38.5469 99.9844 38.5469C100.78 38.5469 101.543 38.2308 102.106 37.6682C102.668 37.1056 102.984 36.3425 102.984 35.5469C102.984 34.7512 102.668 33.9882 102.106 33.4256C101.543 32.8629 100.78 32.5469 99.9844 32.5469C99.1887 32.5469 98.4257 32.8629 97.8631 33.4256C97.3004 33.9882 96.9844 34.7512 96.9844 35.5469ZM99.9844 22.5469C99.1887 22.5469 98.4257 22.2308 97.8631 21.6682C97.3004 21.1056 96.9844 20.3425 96.9844 19.5469C96.9844 18.7512 97.3004 17.9882 97.8631 17.4256C98.4257 16.8629 99.1887 16.5469 99.9844 16.5469C100.78 16.5469 101.543 16.8629 102.106 17.4256C102.668 17.9882 102.984 18.7512 102.984 19.5469C102.984 20.3425 102.668 21.1056 102.106 21.6682C101.543 22.2308 100.78 22.5469 99.9844 22.5469ZM96.9844 3.54688C96.9844 4.34252 97.3004 5.10559 97.8631 5.6682C98.4257 6.2308 99.1887 6.54688 99.9844 6.54688C100.78 6.54688 101.543 6.2308 102.106 5.6682C102.668 5.10559 102.984 4.34252 102.984 3.54688C102.984 2.75123 102.668 1.98816 102.106 1.42555C101.543 0.862945 100.78 0.546875 99.9844 0.546875C99.1887 0.546875 98.4257 0.862945 97.8631 1.42555C97.3004 1.98816 96.9844 2.75123 96.9844 3.54688ZM112.984 83.5469C112.984 84.3425 113.3 85.1056 113.863 85.6682C114.426 86.2308 115.189 86.5469 115.984 86.5469C116.78 86.5469 117.543 86.2308 118.106 85.6682C118.668 85.1056 118.984 84.3425 118.984 83.5469C118.984 82.7512 118.668 81.9882 118.106 81.4256C117.543 80.8629 116.78 80.5469 115.984 80.5469C115.189 80.5469 114.426 80.8629 113.863 81.4256C113.3 81.9882 112.984 82.7512 112.984 83.5469ZM115.984 70.5469C115.189 70.5469 114.426 70.2308 113.863 69.6682C113.3 69.1056 112.984 68.3425 112.984 67.5469C112.984 66.7512 113.3 65.9882 113.863 65.4256C114.426 64.8629 115.189 64.5469 115.984 64.5469C116.78 64.5469 117.543 64.8629 118.106 65.4256C118.668 65.9882 118.984 66.7512 118.984 67.5469C118.984 68.3425 118.668 69.1056 118.106 69.6682C117.543 70.2308 116.78 70.5469 115.984 70.5469ZM112.984 51.5469C112.984 52.3425 113.3 53.1056 113.863 53.6682C114.426 54.2308 115.189 54.5469 115.984 54.5469C116.78 54.5469 117.543 54.2308 118.106 53.6682C118.668 53.1056 118.984 52.3425 118.984 51.5469C118.984 50.7512 118.668 49.9882 118.106 49.4256C117.543 48.8629 116.78 48.5469 115.984 48.5469C115.189 48.5469 114.426 48.8629 113.863 49.4256C113.3 49.9882 112.984 50.7512 112.984 51.5469ZM115.984 38.5469C115.189 38.5469 114.426 38.2308 113.863 37.6682C113.3 37.1056 112.984 36.3425 112.984 35.5469C112.984 34.7512 113.3 33.9882 113.863 33.4256C114.426 32.8629 115.189 32.5469 115.984 32.5469C116.78 32.5469 117.543 32.8629 118.106 33.4256C118.668 33.9882 118.984 34.7512 118.984 35.5469C118.984 36.3425 118.668 37.1056 118.106 37.6682C117.543 38.2308 116.78 38.5469 115.984 38.5469ZM112.984 19.5469C112.984 20.3425 113.3 21.1056 113.863 21.6682C114.426 22.2308 115.189 22.5469 115.984 22.5469C116.78 22.5469 117.543 22.2308 118.106 21.6682C118.668 21.1056 118.984 20.3425 118.984 19.5469C118.984 18.7512 118.668 17.9882 118.106 17.4256C117.543 16.8629 116.78 16.5469 115.984 16.5469C115.189 16.5469 114.426 16.8629 113.863 17.4256C113.3 17.9882 112.984 18.7512 112.984 19.5469ZM115.984 6.54688C115.189 6.54688 114.426 6.2308 113.863 5.6682C113.3 5.10559 112.984 4.34252 112.984 3.54688C112.984 2.75123 113.3 1.98816 113.863 1.42555C114.426 0.862945 115.189 0.546875 115.984 0.546875C116.78 0.546875 117.543 0.862945 118.106 1.42555C118.668 1.98816 118.984 2.75123 118.984 3.54688C118.984 4.34252 118.668 5.10559 118.106 5.6682C117.543 6.2308 116.78 6.54688 115.984 6.54688Z" fill="white"/>
</g>
</g>
<defs>
<clipPath id="clip0_2247_823">
<rect width="118" height="102" fill="white" transform="translate(0.984375 0.546875)"/>
</clipPath>
<clipPath id="clip1_2247_823">
<rect width="118" height="102" fill="white" transform="translate(0.984375 0.546875)"/>
</clipPath>
</defs>
</svg>
